<?xml version="1.0" encoding="utf-8"?>
<!-- Generator: Adobe Illustrator 19.2.1, SVG Export Plug-In . SVG Version: 6.00 Build 0)  -->
<svg version="1.1" id="Слой_1" xmlns="http://www.w3.org/2000/svg" xmlns:xlink="http://www.w3.org/1999/xlink" x="0px" y="0px"
	 viewBox="0 0 200 200" style="enable-background:new 0 0 200 200;" xml:space="preserve">
<style type="text/css">
	.st0{fill:#FFFFFF;}
</style>
<g>
	<path class="st0" d="M-114.9,581.5c0-297.9,0-595.7,0-893.8c581.3,0,1162.8,0,1744.6,0c0,297.8,0,595.8,0,893.8
		C1048.2,581.5,466.7,581.5-114.9,581.5z M168.7,103c0-28.2-0.2-56.3,0.1-84.5c0.1-8.3-2.9-11-11.1-11C122.8,7.9,87.9,7.9,53,7.6
		c-8.4-0.1-10.9,3.1-10.8,11.2c0.2,55.9,0.3,111.9,0,167.8c0,8.8,2.9,11.8,11.7,11.8c34.5-0.3,69-0.3,103.6,0
		c9,0.1,11.5-3.5,11.4-12C168.4,158.6,168.7,130.8,168.7,103z"/>
	<path d="M200,188.3c0,8.5-5.3,11.7-14.3,11.7c-34.5,0-136,0-170.7,0c-8.8,0.1-15-3-15-11.7C0.3,132.3,0.2,74.9,0,19
		C0,10.9,4.6-0.1,13,0c35,0,139.8,0.3,174.7,0c8.2-0.1,12.3,8,12.3,16.3C200,44.4,200,160.4,200,188.3z M129.7,142.9
		c1.4-2.8,2.3-5,3.4-7.1c7.1-14.5,14.8-28.6,21.2-43.4c14-32.2,13.3-52.5-18.7-70.5c-5.8-3.3-12.4-5.4-18.8-7.2
		C82.5,5.3,42.7,35,44.2,67.2c0.8,17.4,8.7,30.7,17.2,44.7c5.8,9.5,10.9,19.8,14.2,30.5c4.7,15.1,22.3,24.3,37.2,16.7
		c-10.3-9.6-10.5-21.2-6.2-33.4c2-5.6,4.7-11.1,5.6-16.8c0.7-4.6-1-9.5-1.9-16c1.2-0.9,5-3.8,8.9-6.6c-0.4-1.6-0.9-3.3-1.3-4.9
		c-8.8,1.1-17.7,1.9-26.4,3.6c-3.5,0.7-8.2,3.1-9.1,5.8c-0.8,2.4,2.5,6.8,4.9,9.4c9.1,10,11.3,28,5.7,39
		c-8.8-16.7-18.4-34.5-27.6-52.4c-8.7-17-4.3-37.8,10.7-49.3C92,25.1,110,24.5,127.5,33c22.8,11.1,28.5,32,16.1,53.7
		c-5.5,9.6-11.3,19.1-16.3,28.9C123.3,123.5,119.2,132,129.7,142.9z M81.9,166c-1,0.5-1.9,1-2.9,1.5c3.2,3.6,5.7,8.9,9.7,10.4
		c9,3.5,18.9,6.9,29.9-0.6C105.2,173.2,93.5,169.6,81.9,166z M85.6,183.6c-0.5,1.2-0.9,2.4-1.4,3.6c5.3,8.5,13.7,5.8,22.1,3
		C99.4,188,92.5,185.8,85.6,183.6z"/>
	<path class="st0" d="M129.7,142.9c-10.5-10.9-6.4-19.4-2.4-27.3c5-9.9,10.8-19.3,16.3-28.9c12.4-21.7,6.7-42.6-16.1-53.7
		C110,24.5,92,25.1,75.9,37.4C60.9,48.9,56.5,69.7,65.2,86.6c9.2,18,18.8,35.8,27.6,52.4c5.6-11,3.4-29-5.7-39
		c-2.4-2.6-5.7-7-4.9-9.4c0.9-2.7,5.7-5.1,9.1-5.8c8.7-1.8,17.6-2.5,26.4-3.6c0.4,1.6,0.9,3.3,1.3,4.9c-3.8,2.9-7.7,5.7-8.9,6.6
		c0.9,6.4,2.5,11.4,1.9,16c-0.8,5.8-3.6,11.2-5.6,16.8c-4.3,12.2-4.1,23.7,6.2,33.4c-14.9,7.6-32.4-1.5-37.2-16.7
		c-3.3-10.6-8.4-20.9-14.2-30.5C52.9,97.9,45,84.6,44.2,67.2C42.7,35,82.5,5.3,116.8,14.8c6.5,1.8,13,3.9,18.8,7.2
		c32,18,32.7,38.2,18.7,70.5c-6.4,14.8-14.1,29-21.2,43.4C132.1,137.9,131.1,140.1,129.7,142.9z"/>
	<path class="st0" d="M81.9,166c11.6,3.6,23.3,7.2,36.7,11.3c-11.1,7.5-20.9,4.1-29.9,0.6c-4-1.5-6.5-6.8-9.7-10.4
		C80,167,80.9,166.5,81.9,166z"/>
	<path class="st0" d="M85.6,183.6c6.9,2.2,13.8,4.4,20.7,6.6c-8.5,2.8-16.8,5.5-22.1-3C84.7,186,85.1,184.8,85.6,183.6z"/>
</g>
</svg>
