<?xml version="1.0" encoding="utf-8"?>
<!-- Generator: Adobe Illustrator 19.2.1, SVG Export Plug-In . SVG Version: 6.00 Build 0)  -->
<svg version="1.1" id="Слой_1" xmlns="http://www.w3.org/2000/svg" xmlns:xlink="http://www.w3.org/1999/xlink" x="0px" y="0px"
	 viewBox="0 0 200 200" style="enable-background:new 0 0 200 200;" xml:space="preserve">
<style type="text/css">
	.st0{fill:#FFFFFF;}
</style>
<g>
	<path class="st0" d="M125.7,142.7c-10.5-10.9-6.4-19.4-2.4-27.3c5-9.9,10.8-19.3,16.3-28.9c12.4-21.7,6.7-42.6-16.1-53.7
		C106,24.3,88,24.9,71.9,37.2c-15,11.5-19.4,32.3-10.7,49.2c9.2,18,18.8,35.8,27.6,52.4c5.6-11,3.4-29-5.7-39
		c-2.4-2.6-5.7-7-4.9-9.4c0.9-2.7,5.7-5.1,9.1-5.8c8.7-1.8,17.6-2.5,26.4-3.6c0.4,1.6,0.9,3.3,1.3,4.9c-3.8,2.9-7.7,5.7-8.9,6.6
		c0.9,6.4,2.5,11.4,1.9,16c-0.8,5.8-3.6,11.2-5.6,16.8c-4.3,12.2-4.1,23.7,6.2,33.4c-14.9,7.6-32.4-1.5-37.2-16.7
		c-3.3-10.6-8.4-20.9-14.2-30.5C48.9,97.7,41,84.4,40.2,67c-1.5-32.2,38.3-61.9,72.6-52.4c6.5,1.8,13,3.9,18.8,7.2
		c32,18,32.7,38.2,18.7,70.5c-6.4,14.8-14.1,29-21.2,43.4C128.1,137.7,127.1,139.9,125.7,142.7z"/>
	<path class="st0" d="M77.9,165.8c11.6,3.6,23.3,7.2,36.7,11.3c-11.1,7.5-20.9,4.1-29.9,0.6c-4-1.5-6.5-6.8-9.7-10.4
		C76,166.8,76.9,166.3,77.9,165.8z"/>
	<path class="st0" d="M81.6,183.4c6.9,2.2,13.8,4.4,20.7,6.6c-8.5,2.8-16.8,5.5-22.1-3C80.7,185.8,81.1,184.6,81.6,183.4z"/>
</g>
</svg>
