<?xml version="1.0" encoding="utf-8"?>
<!-- Generator: Adobe Illustrator 19.2.1, SVG Export Plug-In . SVG Version: 6.00 Build 0)  -->
<svg version="1.1" id="Слой_1" xmlns="http://www.w3.org/2000/svg" xmlns:xlink="http://www.w3.org/1999/xlink" x="0px" y="0px"
	 viewBox="0 0 200 200" style="enable-background:new 0 0 200 200;" xml:space="preserve">
<g>
	<path d="M0,196.8c-0.2-4.1,0.4-12.8,0.4-15.9C0.4,129.8-0.1,60.6,0,9.5C0-2,6.8,0,18.2,0c51.1-0.1,122.9,0.3,174,0
		c8.2,0,7.8-0.1,7.8,8.8c-0.3,51.8-0.1,128.6,0,180.4c0,6.7-2,10.9-9.6,10.9c-53.2-0.2-131.1,0-184.3,0C4.1,200,0,200.3,0,196.8z
		 M28.1,96.6c-1,43.8,32.1,78.5,75.8,79.9c10.3,0.3,20.6,1.3,30.7,3.3c30.4,5.8,59.5-25.5,51-55.1c-1.7-5.9-3.6-12.2-2.9-18.1
		c5.3-45.3-34.4-88.7-77-86.3c-7.1,0.4-15.1,1-21.4-1.6c-13.4-5.6-25.5-3.8-37.8,2.3C30.7,28.8,19.2,51,22.7,66.5
		C24.9,76.4,26.3,86.5,28.1,96.6z"/>
	<path d="M102.3,47.4c12.3-0.6,23.1,3.3,32.6,10.8c7.1,5.6,8.4,12.1,4.2,16.9c-4.1,4.7-11.1,4.4-17.4-1.5
		c-6.9-6.5-14.4-10.6-24.2-8.7c-5.8,1.1-11.1,3.4-11,10.2c0.1,6.1,4.6,8.7,10.2,9.9c9.4,2,18.8,4.2,28.2,6.6
		c12.6,3.3,19.5,12.4,19.7,25.6c0.2,14.6-6.5,24.3-19.4,28c-13.9,3.9-28.1,4.7-41.6-0.3c-6.7-2.4-13-7.7-17.5-13.3
		c-2.2-2.8-1.7-11.3,0.8-13.6c4.4-4,10.5-2.8,15.5,2.2c4.2,4.2,9.3,8.4,14.8,10.3c4.7,1.6,11,1.3,15.7-0.6c3.6-1.4,8-6.5,8-10
		c0-3.4-4.5-8.5-8.2-9.8c-10-3.7-20.7-5.4-30.9-8.6C63.7,95.8,56.5,73.1,69.6,60c6.1-6.1,16-8.5,24.4-12.1
		C96.4,46.9,99.5,47.6,102.3,47.4z"/>
</g>
</svg>
