<?xml version="1.0" encoding="utf-8"?>
<!-- Generator: Adobe Illustrator 19.2.1, SVG Export Plug-In . SVG Version: 6.00 Build 0)  -->
<svg version="1.1" id="Слой_1" xmlns="http://www.w3.org/2000/svg" xmlns:xlink="http://www.w3.org/1999/xlink" x="0px" y="0px"
	 viewBox="0 0 200 200" style="enable-background:new 0 0 200 200;" xml:space="preserve">
<g>
	<path d="M0.8,171.9c0-47.5,0-95,0-142.5c0.3-1.2,0.7-2.3,0.9-3.5C3,19.1,6.1,13.2,11.4,8.8C15.9,5,21,2.7,26.6,1.3
		c1.9-0.5,3.9-1,5.8-1.5c45.9,0,91.9,0,137.8,0c1.2,0.3,2.3,0.7,3.5,0.8c14,1.2,23.7,10.3,25.9,24.2c0.2,1.1,0.6,2.1,0.9,3.2
		c0,47.5,0,95,0,142.5c-0.4,2.1-0.8,4.1-1.2,6.2c-3,13.9-16.1,24-31.3,24c-44.4,0-88.9,0-133.3,0c-2.7,0-5.4,0-8-0.5
		C13.6,197.7,6,189.5,2.4,177C1.9,175.3,1.4,173.6,0.8,171.9z M198.5,100.2c0-20.8,0-41.7,0-62.5c0-2.5,0.1-4.9-0.1-7.4
		c-0.7-13.7-8.8-24-21.4-26.8c-3.5-0.8-7.1-1-10.7-1c-43-0.1-86,0-129-0.1c-5.3,0-10.3,1-15.1,3C12.6,9.4,6.1,16.4,4,26.9
		c-0.5,2.6-0.6,5.3-0.6,8c0,43.9,0,87.8,0,131.7c0,19.4,13.4,32.7,32.8,32.8c43.4,0.1,86.7,0.1,130.1,0c8.6,0,16.2-3.3,22.7-8.9
		c6.9-6,9.6-13.9,9.6-22.8C198.5,145.2,198.5,122.7,198.5,100.2z"/>
	<path d="M102.3,180.1c-16.8-0.4-33.6-0.7-50.4-1.2c-4.7-0.1-9-1.9-12.5-5c-3.1-2.7-4.9-6-5.3-10.1c-1.3-14.1-1.3-28.2-0.1-42.3
		c0.5-5.3,2.9-9.1,7.1-11.9c3.6-2.5,7.6-3.7,12-3.7c24.3-0.2,48.6-0.5,72.9-0.6c8.6,0,17.2,0.4,25.9,0.6c4.7,0.1,9,1.5,12.8,4.4
		c3.9,2.9,5.9,6.8,6.3,11.7c1,13.1,1,26.2,0.1,39.3c-0.8,10.3-7.1,17.1-17.5,17.6c-10.5,0.6-21,0.6-31.6,0.8c-6.6,0.1-13.2,0-19.8,0
		C102.3,179.8,102.3,179.9,102.3,180.1z M114.2,164.2c1.6,0.7,2.9,1.4,4.3,1.8c6.4,1.9,10.6-1.3,10.6-7.9c0-6.5,0.1-13,0-19.5
		c-0.1-7.6-5.9-11-12.7-7.5c-0.8,0.4-1.5,0.8-2.8,1.5c0-3.1,0-5.7,0-8.4c0-7.4-0.1-7.5-7.5-6.4c-0.2,0-0.3,0.2-0.9,0.7
		c0,1,0,2.3,0,3.6c0,13.2,0,26.4,0.1,39.6c0,0.8-0.1,1.6,0.1,2.3c0.1,0.6,0.5,1.3,0.9,1.6C108.1,166.6,112.8,165.7,114.2,164.2z
		 M144.2,148.9c1.7,0,3,0,4.2,0c3,0,6,0,9.1,0c1.8,0,2.7-0.6,2.6-2.5c-0.1-2.6,0.1-5.1,0-7.7c-0.2-3.7-1.9-6.5-5.3-7.9
		c-4.4-1.8-9-1.9-13.3,0.3c-3.2,1.6-5.5,4.1-5.6,7.8c-0.2,6.5-0.1,13,0.2,19.4c0.2,4.1,2.9,6.7,6.7,8c3.7,1.3,7.5,1.1,11.2-0.2
		c4.4-1.6,7-6.2,6.1-10.8c-0.1-0.5-0.4-1.3-0.7-1.4c-2.1-0.2-4.2-0.6-6.3-0.2c-2,0.3-1.2,2.3-1.3,3.7c-0.3,2.5-1.3,3.6-3.5,3.7
		c-2.2,0.1-3.7-0.9-3.9-3.3C144,155,144.2,152.2,144.2,148.9z M96.6,130.5c-2.7,0-5,0-7.7,0c-0.1,1.6-0.3,3-0.3,4.4
		c0,6.4,0.1,12.8,0.1,19.2c0,0.9,0.1,1.8-0.1,2.7c-0.3,1.8-3.2,3.8-5.2,3.5c-2.4-0.3-2.2-2.2-2.2-3.8c0-7.3,0.1-14.6,0-21.8
		c0-1.3-0.2-2.6-0.3-4c-2.7,0-5,0-7.6,0c-0.1,1.2-0.4,2.3-0.4,3.4c0,8.6,0,17.3,0.2,25.9c0.1,5.8,3.3,8.1,8.9,6.2
		c2.1-0.7,4-1.9,5.9-2.9c1.6,3.2,3.3,3.7,8.5,2.2C96.6,153.9,96.6,142.4,96.6,130.5z M63,165.7c0.1-1.4,0.2-2.5,0.2-3.6
		c0-10.4,0.1-20.8,0.1-31.3c0-6.3,0-6.3,6.4-6.5c2.9-0.1,3.3-0.5,3.3-3.3c0-2.9-0.3-3.3-3.2-3.3c-7.2,0-14.3,0-21.5,0
		c-4.1,0-4.4,0.4-4.1,4.4c0.1,0.6,0.3,1.3,0.6,2.3c1.9,0,3.8,0,5.7,0c3.4,0.1,3.5,0.2,3.5,3.7c0,11.2,0.1,22.4,0.1,33.6
		c0,1.3,0.1,2.6,0.2,4.1C57.2,165.7,59.9,165.7,63,165.7z"/>
	<path d="M118.7,73.1c0,4,0,8.1,0,12.1c0,7.4-3.4,11.9-10.7,13.9c-4.9,1.3-9.8,1.3-14.6-0.3c-6.2-2-9.7-6.4-9.9-12.9
		c-0.2-8.6-0.2-17.3-0.1-25.9c0.1-5,2.4-9,7-11c7.7-3.4,15.4-3.6,22.8,0.9c3.5,2.1,5.4,5.3,5.4,9.5
		C118.8,63.9,118.8,68.5,118.7,73.1C118.8,73.1,118.8,73.1,118.7,73.1z M96.6,72.8C96.6,72.8,96.6,72.8,96.6,72.8
		c0,4.4-0.1,8.7,0,13.1c0.1,3.2,1.4,4.5,4.5,4.6c3.2,0,5-1.3,5-4.5c0.1-8.5,0-17-0.1-25.5c-0.1-3.2-1.9-4.6-5-4.5
		c-2.9,0.1-4.3,1.6-4.3,4.8C96.5,64.7,96.6,68.8,96.6,72.8z"/>
	<path d="M127.8,47.3c3.7,0,7.1-0.1,10.6,0.1c0.6,0,1.5,1.1,1.8,1.9c0.3,0.8,0.1,1.8,0.1,2.7c0,10.8,0,21.5-0.1,32.3
		c0,3.7,0.6,4.7,2.7,4.9c2.7,0.2,6.4-2.6,6.7-5c0.1-1,0.1-2,0-3c-0.1-9.9-0.1-19.7-0.2-29.6c0-4.2,0.1-4.4,4.3-4.4
		c10.8,0,8.5-0.8,8.6,8.4c0.1,12.8,0,25.5,0,38.3c0,4.4,0,4.4-4.5,4.4c-2.5,0-5.1,0-7.7,0c-0.3-1.7-0.5-3-0.7-4.5
		c-1.8,1.1-3.3,2.4-5,3c-2.8,1-5.8,1.9-8.7,2.1c-4.6,0.2-7.5-2.7-7.9-7.4c-0.2-2.9-0.1-5.8-0.1-8.7c-0.1-10.3-0.2-20.6-0.2-30.9
		C127.4,50.4,127.6,49.1,127.8,47.3z"/>
	<path d="M37.9,30.7c4.5,0,8.5-0.2,12.4,0.1c0.8,0.1,1.9,1.7,2.2,2.9c2.3,6.8,4.5,13.6,6.7,20.4c0.3,0.8,0.6,1.6,1.2,3.1
		c0.6-1.6,1-2.5,1.3-3.5c2.1-6.6,4.2-13.2,6.1-19.9c0.7-2.2,1.6-3.4,4.2-3.2c3.3,0.2,6.7,0.1,10.6,0.1c-0.5,1.6-0.7,2.7-1.1,3.8
		C77.3,45.3,73,56.1,68.8,66.9c-0.7,1.9-1.1,4.1-1.2,6.2c-0.2,7.1-0.1,14.1-0.1,21.2c0,3.1-0.1,3.2-3.2,3.3c-3.3,0-6.7,0-10.2,0
		c-0.2-1-0.5-1.7-0.5-2.5C53.6,88,53.6,81,53.5,73.9c0-1.7-0.3-3.6-0.9-5.2C48.2,57.4,43.7,46.2,39.3,35
		C38.8,33.8,38.5,32.5,37.9,30.7z"/>
	<path d="M113.6,148c0-3,0-6,0-9c0.1-2.5,1.1-3.5,3.4-3.6c2.2-0.1,3.6,1,3.7,3.4c0.1,6.5,0.1,12.9,0,19.4c0,2.1-1.4,3.1-3.3,2.9
		c-1.7-0.2-3.7-0.6-3.7-3C113.5,154.7,113.6,151.4,113.6,148C113.6,148,113.6,148,113.6,148z"/>
	<path d="M151.5,143.5c-2.7,0-5.6,1.5-7-0.9c-0.8-1.4-0.1-4.1,0.8-5.9c0.8-1.6,2.9-1.6,4.5-0.8C152.7,137.6,151.4,140.5,151.5,143.5
		z"/>
</g>
</svg>
